<svg xmlns="http://www.w3.org/2000/svg" width="22.156" height="28.66" viewBox="0 0 22.156 28.66">
  <metadata><?xpacket begin="﻿" id="W5M0MpCehiHzreSzNTczkc9d"?>
<x:xmpmeta xmlns:x="adobe:ns:meta/" x:xmptk="Adobe XMP Core 5.6-c142 79.160924, 2017/07/13-01:06:39        ">
   <rdf:RDF xmlns:rdf="http://www.w3.org/1999/02/22-rdf-syntax-ns#">
      <rdf:Description rdf:about=""/>
   </rdf:RDF>
</x:xmpmeta>
                                                                                                    
                                                                                                    
                                                                                                    
                                                                                                    
                                                                                                    
                                                                                                    
                                                                                                    
                                                                                                    
                                                                                                    
                                                                                                    
                                                                                                    
                                                                                                    
                                                                                                    
                                                                                                    
                                                                                                    
                                                                                                    
                                                                                                    
                                                                                                    
                                                                                                    
                                                                                                    
                           
<?xpacket end="w"?></metadata>
<defs>
    <style>
      .cls-1 {
        fill: #fff;
        fill-rule: evenodd;
      }
    </style>
  </defs>
  <path id="Address_Icon" data-name="Address Icon" class="cls-1" d="M157.842,6599.86a11.068,11.068,0,0,0-11.079,11.03c0,4.35,1.828,8.75,5.286,12.72a27.9,27.9,0,0,0,5.25,4.72,1,1,0,0,0,1.087,0,27.911,27.911,0,0,0,5.249-4.72c3.459-3.97,5.286-8.37,5.286-12.72a11.068,11.068,0,0,0-11.079-11.03h0Zm0,26.43c-2.037-1.51-9.092-7.33-9.092-15.4a9.093,9.093,0,0,1,18.185,0c0,8.07-7.056,13.89-9.093,15.4h0Zm0,0,0-19.78a4.38,4.38,0,1,0,4.4,4.38,4.4,4.4,0,0,0-4.4-4.38h0Zm0,6.78a2.4,2.4,0,1,1,2.41-2.4,2.4,2.4,0,0,1-2.41,2.4h0Zm0,0" transform="translate(-146.75 -6599.84)"/>
</svg>
