<svg xmlns="http://www.w3.org/2000/svg" width="32.344" height="21.25" viewBox="0 0 32.344 21.25">
  <metadata><?xpacket begin="﻿" id="W5M0MpCehiHzreSzNTczkc9d"?>
<x:xmpmeta xmlns:x="adobe:ns:meta/" x:xmptk="Adobe XMP Core 5.6-c142 79.160924, 2017/07/13-01:06:39        ">
   <rdf:RDF xmlns:rdf="http://www.w3.org/1999/02/22-rdf-syntax-ns#">
      <rdf:Description rdf:about=""/>
   </rdf:RDF>
</x:xmpmeta>
                                                                                                    
                                                                                                    
                                                                                                    
                                                                                                    
                                                                                                    
                                                                                                    
                                                                                                    
                                                                                                    
                                                                                                    
                                                                                                    
                                                                                                    
                                                                                                    
                                                                                                    
                                                                                                    
                                                                                                    
                                                                                                    
                                                                                                    
                                                                                                    
                                                                                                    
                                                                                                    
                           
<?xpacket end="w"?></metadata>
<defs>
    <style>
      .cls-1 {
        fill: #fff;
        fill-rule: evenodd;
      }
    </style>
  </defs>
  <path id="Email_Icon" data-name="Email Icon" class="cls-1" d="M168.774,6564.27l-10.469,8.92-10.47-8.92a1.039,1.039,0,0,0-1.42.09,0.947,0.947,0,0,0,.09,1.37l11.136,9.48a1.04,1.04,0,0,0,1.329,0l11.134-9.48a0.947,0.947,0,0,0,.09-1.37,1.039,1.039,0,0,0-1.42-.09h0Zm0,0,2.677-4.13H145.158a2.974,2.974,0,0,0-3.018,2.92v15.42a2.972,2.972,0,0,0,3.018,2.91h26.293a2.972,2.972,0,0,0,3.017-2.91v-15.42a2.973,2.973,0,0,0-3.017-2.92h0Zm1,18.34a0.992,0.992,0,0,1-1,.97H145.158a0.993,0.993,0,0,1-1.006-.97v-15.42a0.986,0.986,0,0,1,1.006-.97h26.293a0.986,0.986,0,0,1,1,.97v15.42Zm0,0" transform="translate(-142.125 -6560.16)"/>
</svg>
