<svg xmlns="http://www.w3.org/2000/svg" width="27.688" height="27.72" viewBox="0 0 27.688 27.72">
  <defs>
    <style>
      .cls-1 {
        fill: #fff;
        fill-rule: evenodd;
      }
    </style>
  </defs>
  <path id="Phone_Icon" data-name="Phone Icon" class="cls-1" d="M167.958,6515.74a12.852,12.852,0,0,0-9.013-3.63,0.98,0.98,0,1,0,0,1.96,10.817,10.817,0,0,1,7.585,3.06,10.218,10.218,0,0,1,3.142,7.37,1.01,1.01,0,0,0,2.02,0,12.132,12.132,0,0,0-3.734-8.76h0Zm-4.154,8.76a1.01,1.01,0,0,0,2.02,0,6.8,6.8,0,0,0-6.879-6.69,0.985,0.985,0,1,0,0,1.97,4.8,4.8,0,0,1,4.859,4.72h0Zm0,0-2.235,5.01a3.062,3.062,0,0,0-2.7,1.57,0.971,0.971,0,0,0,.263,1.37,1.033,1.033,0,0,0,1.4-.26,1.1,1.1,0,0,1,.919-0.72,13.075,13.075,0,0,1,4.661,3.32,1,1,0,0,1-.009.72,3.412,3.412,0,0,1-1.731,2.12,3.314,3.314,0,0,1-2.595-.08,28.718,28.718,0,0,1-9.364-5.93c0-.01,0-0.01,0-0.01a27.674,27.674,0,0,1-6.085-9.09,3.084,3.084,0,0,1-.087-2.53,3.456,3.456,0,0,1,2.179-1.68,1.093,1.093,0,0,1,.735-0.01,12.678,12.678,0,0,1,3.416,4.53c0.015,0.27-.088.47-0.738,0.9a0.958,0.958,0,0,0-.264,1.36,1.022,1.022,0,0,0,1.4.26,2.968,2.968,0,0,0,1.616-2.63c-0.087-1.57-3.226-5.72-4.726-6.26a3.11,3.11,0,0,0-2.086-.01,5.4,5.4,0,0,0-3.372,2.73,4.923,4.923,0,0,0,.053,4.08,29.514,29.514,0,0,0,6.53,9.74,0.039,0.039,0,0,0,.021.02,30.424,30.424,0,0,0,10.009,6.34,6.043,6.043,0,0,0,2.256.46,4.745,4.745,0,0,0,1.944-.4,5.344,5.344,0,0,0,2.8-3.28,2.9,2.9,0,0,0-.01-2.03c-0.553-1.46-4.826-4.51-6.442-4.6h0Zm0,0" transform="translate(-144 -6512.09)"/>
</svg>
